<mxfile host="Electron" modified="2023-11-09T07:37:03.407Z" agent="Mozilla/5.0 (Windows NT 10.0; Win64; x64) AppleWebKit/537.36 (KHTML, like Gecko) draw.io/22.0.3 Chrome/114.0.5735.289 Electron/25.8.4 Safari/537.36" etag="5D6yJQIQA5EiXv_qfWYF" version="22.0.3" type="device">
  <diagram name="Page-1" id="2c0d36ab-eaac-3732-788b-9136903baeff">
    <mxGraphModel dx="778" dy="495" grid="1" gridSize="10" guides="1" tooltips="1" connect="1" arrows="1" fold="1" page="1" pageScale="1.5" pageWidth="1169" pageHeight="827" background="none" math="0" shadow="0">
      <root>
        <mxCell id="0" />
        <mxCell id="1" parent="0" />
        <mxCell id="123" value="" style="fillColor=#AE4132;strokeColor=none;opacity=30;" parent="1" vertex="1">
          <mxGeometry x="747" y="175.50000000000003" width="210" height="99.99999999999994" as="geometry" />
        </mxCell>
        <mxCell id="DZLacPGKGNpmJbC0AI3P-147" style="edgeStyle=orthogonalEdgeStyle;rounded=0;orthogonalLoop=1;jettySize=auto;html=1;exitX=0.5;exitY=1;exitDx=0;exitDy=0;entryX=0.5;entryY=0;entryDx=0;entryDy=0;" edge="1" parent="1" source="2" target="DZLacPGKGNpmJbC0AI3P-123">
          <mxGeometry relative="1" as="geometry" />
        </mxCell>
        <mxCell id="DZLacPGKGNpmJbC0AI3P-148" style="edgeStyle=orthogonalEdgeStyle;rounded=0;orthogonalLoop=1;jettySize=auto;html=1;exitX=0.5;exitY=1;exitDx=0;exitDy=0;entryX=0.5;entryY=0;entryDx=0;entryDy=0;" edge="1" parent="1" source="2" target="10">
          <mxGeometry relative="1" as="geometry" />
        </mxCell>
        <mxCell id="DZLacPGKGNpmJbC0AI3P-149" style="edgeStyle=orthogonalEdgeStyle;rounded=0;orthogonalLoop=1;jettySize=auto;html=1;exitX=0.5;exitY=1;exitDx=0;exitDy=0;entryX=0.5;entryY=0;entryDx=0;entryDy=0;" edge="1" parent="1" source="2" target="DZLacPGKGNpmJbC0AI3P-140">
          <mxGeometry relative="1" as="geometry" />
        </mxCell>
        <mxCell id="DZLacPGKGNpmJbC0AI3P-150" style="edgeStyle=orthogonalEdgeStyle;rounded=0;orthogonalLoop=1;jettySize=auto;html=1;exitX=0.5;exitY=1;exitDx=0;exitDy=0;entryX=0.5;entryY=0;entryDx=0;entryDy=0;" edge="1" parent="1" source="2" target="DZLacPGKGNpmJbC0AI3P-142">
          <mxGeometry relative="1" as="geometry" />
        </mxCell>
        <mxCell id="2" value="Quản lí bán hàng online" style="rounded=1;fillColor=#23445D;gradientColor=none;strokeColor=none;fontColor=#FFFFFF;fontStyle=1;fontFamily=Tahoma;fontSize=14" parent="1" vertex="1">
          <mxGeometry x="757" y="185.5" width="190" height="80" as="geometry" />
        </mxCell>
        <mxCell id="DZLacPGKGNpmJbC0AI3P-178" style="edgeStyle=orthogonalEdgeStyle;rounded=0;orthogonalLoop=1;jettySize=auto;html=1;exitX=0;exitY=0.5;exitDx=0;exitDy=0;entryX=0;entryY=0.5;entryDx=0;entryDy=0;" edge="1" parent="1" source="4" target="DZLacPGKGNpmJbC0AI3P-143">
          <mxGeometry relative="1" as="geometry" />
        </mxCell>
        <mxCell id="DZLacPGKGNpmJbC0AI3P-179" style="edgeStyle=orthogonalEdgeStyle;rounded=0;orthogonalLoop=1;jettySize=auto;html=1;exitX=0;exitY=0.5;exitDx=0;exitDy=0;entryX=0;entryY=0.5;entryDx=0;entryDy=0;" edge="1" parent="1" source="4" target="DZLacPGKGNpmJbC0AI3P-157">
          <mxGeometry relative="1" as="geometry" />
        </mxCell>
        <mxCell id="4" value="Quản lí kho" style="rounded=1;fillColor=#23445D;gradientColor=none;strokeColor=none;fontColor=#FFFFFF;fontStyle=1;fontFamily=Tahoma;fontSize=14" parent="1" vertex="1">
          <mxGeometry x="1029.9999999999998" y="335.5" width="190" height="80" as="geometry" />
        </mxCell>
        <mxCell id="9" value="" style="edgeStyle=elbowEdgeStyle;elbow=vertical;strokeWidth=2;rounded=0" parent="1" source="2" target="4" edge="1">
          <mxGeometry x="337" y="215.5" width="100" height="100" as="geometry">
            <mxPoint x="337" y="315.5" as="sourcePoint" />
            <mxPoint x="437" y="215.5" as="targetPoint" />
          </mxGeometry>
        </mxCell>
        <mxCell id="DZLacPGKGNpmJbC0AI3P-174" style="edgeStyle=orthogonalEdgeStyle;rounded=0;orthogonalLoop=1;jettySize=auto;html=1;exitX=0;exitY=0.5;exitDx=0;exitDy=0;entryX=0;entryY=0.5;entryDx=0;entryDy=0;" edge="1" parent="1" source="10" target="DZLacPGKGNpmJbC0AI3P-137">
          <mxGeometry relative="1" as="geometry" />
        </mxCell>
        <mxCell id="DZLacPGKGNpmJbC0AI3P-175" style="edgeStyle=orthogonalEdgeStyle;rounded=0;orthogonalLoop=1;jettySize=auto;html=1;exitX=0;exitY=0.5;exitDx=0;exitDy=0;entryX=0;entryY=0.5;entryDx=0;entryDy=0;" edge="1" parent="1" source="10" target="DZLacPGKGNpmJbC0AI3P-138">
          <mxGeometry relative="1" as="geometry" />
        </mxCell>
        <mxCell id="DZLacPGKGNpmJbC0AI3P-176" style="edgeStyle=orthogonalEdgeStyle;rounded=0;orthogonalLoop=1;jettySize=auto;html=1;exitX=0;exitY=0.5;exitDx=0;exitDy=0;entryX=0;entryY=0.5;entryDx=0;entryDy=0;" edge="1" parent="1" source="10" target="DZLacPGKGNpmJbC0AI3P-139">
          <mxGeometry relative="1" as="geometry" />
        </mxCell>
        <mxCell id="10" value="Báo cáo, thống kê" style="rounded=1;fillColor=#23445D;gradientColor=none;strokeColor=none;fontColor=#FFFFFF;fontStyle=1;fontFamily=Tahoma;fontSize=14" parent="1" vertex="1">
          <mxGeometry x="800" y="335.5" width="190" height="80" as="geometry" />
        </mxCell>
        <mxCell id="DZLacPGKGNpmJbC0AI3P-164" style="edgeStyle=orthogonalEdgeStyle;rounded=0;orthogonalLoop=1;jettySize=auto;html=1;exitX=0;exitY=0.5;exitDx=0;exitDy=0;entryX=0;entryY=0.5;entryDx=0;entryDy=0;" edge="1" parent="1" source="12" target="DZLacPGKGNpmJbC0AI3P-124">
          <mxGeometry relative="1" as="geometry" />
        </mxCell>
        <mxCell id="DZLacPGKGNpmJbC0AI3P-165" style="edgeStyle=orthogonalEdgeStyle;rounded=0;orthogonalLoop=1;jettySize=auto;html=1;exitX=0;exitY=0.5;exitDx=0;exitDy=0;entryX=0;entryY=0.5;entryDx=0;entryDy=0;" edge="1" parent="1" source="12" target="DZLacPGKGNpmJbC0AI3P-125">
          <mxGeometry relative="1" as="geometry" />
        </mxCell>
        <mxCell id="DZLacPGKGNpmJbC0AI3P-166" style="edgeStyle=orthogonalEdgeStyle;rounded=0;orthogonalLoop=1;jettySize=auto;html=1;exitX=0;exitY=0.5;exitDx=0;exitDy=0;entryX=0;entryY=0.5;entryDx=0;entryDy=0;" edge="1" parent="1" source="12" target="DZLacPGKGNpmJbC0AI3P-130">
          <mxGeometry relative="1" as="geometry" />
        </mxCell>
        <mxCell id="DZLacPGKGNpmJbC0AI3P-167" style="edgeStyle=orthogonalEdgeStyle;rounded=0;orthogonalLoop=1;jettySize=auto;html=1;exitX=0;exitY=0.5;exitDx=0;exitDy=0;entryX=0;entryY=0.5;entryDx=0;entryDy=0;" edge="1" parent="1" source="12" target="DZLacPGKGNpmJbC0AI3P-153">
          <mxGeometry relative="1" as="geometry" />
        </mxCell>
        <mxCell id="12" value="Quản lí sản phẩm" style="rounded=1;fillColor=#23445D;gradientColor=none;strokeColor=none;fontColor=#FFFFFF;fontStyle=1;fontFamily=Tahoma;fontSize=14" parent="1" vertex="1">
          <mxGeometry x="339.9999999999999" y="335.5" width="190" height="80" as="geometry" />
        </mxCell>
        <mxCell id="DZLacPGKGNpmJbC0AI3P-160" style="edgeStyle=orthogonalEdgeStyle;rounded=0;orthogonalLoop=1;jettySize=auto;html=1;exitX=0;exitY=0.5;exitDx=0;exitDy=0;entryX=0;entryY=0.5;entryDx=0;entryDy=0;" edge="1" parent="1" source="13" target="DZLacPGKGNpmJbC0AI3P-126">
          <mxGeometry relative="1" as="geometry" />
        </mxCell>
        <mxCell id="DZLacPGKGNpmJbC0AI3P-161" style="edgeStyle=orthogonalEdgeStyle;rounded=0;orthogonalLoop=1;jettySize=auto;html=1;exitX=0;exitY=0.5;exitDx=0;exitDy=0;entryX=0;entryY=0.5;entryDx=0;entryDy=0;" edge="1" parent="1" source="13" target="DZLacPGKGNpmJbC0AI3P-127">
          <mxGeometry relative="1" as="geometry" />
        </mxCell>
        <mxCell id="DZLacPGKGNpmJbC0AI3P-162" style="edgeStyle=orthogonalEdgeStyle;rounded=0;orthogonalLoop=1;jettySize=auto;html=1;exitX=0;exitY=0.5;exitDx=0;exitDy=0;entryX=0;entryY=0.5;entryDx=0;entryDy=0;" edge="1" parent="1" source="13" target="DZLacPGKGNpmJbC0AI3P-134">
          <mxGeometry relative="1" as="geometry" />
        </mxCell>
        <mxCell id="DZLacPGKGNpmJbC0AI3P-163" style="edgeStyle=orthogonalEdgeStyle;rounded=0;orthogonalLoop=1;jettySize=auto;html=1;exitX=0;exitY=0.5;exitDx=0;exitDy=0;entryX=0;entryY=0.5;entryDx=0;entryDy=0;" edge="1" parent="1" source="13" target="DZLacPGKGNpmJbC0AI3P-152">
          <mxGeometry relative="1" as="geometry" />
        </mxCell>
        <mxCell id="13" value="Quản lí người dùng" style="rounded=1;fillColor=#23445D;gradientColor=none;strokeColor=none;fontColor=#FFFFFF;fontStyle=1;fontFamily=Tahoma;fontSize=14" parent="1" vertex="1">
          <mxGeometry x="107" y="335.5" width="190" height="80" as="geometry" />
        </mxCell>
        <mxCell id="59" value="" style="edgeStyle=elbowEdgeStyle;elbow=vertical;strokeWidth=2;rounded=0" parent="1" source="2" target="12" edge="1">
          <mxGeometry x="347" y="225.5" width="100" height="100" as="geometry">
            <mxPoint x="861.9999999999999" y="275.5" as="sourcePoint" />
            <mxPoint x="1466.9999999999998" y="345.5" as="targetPoint" />
          </mxGeometry>
        </mxCell>
        <mxCell id="61" value="" style="edgeStyle=elbowEdgeStyle;elbow=vertical;strokeWidth=2;rounded=0" parent="1" source="2" target="13" edge="1">
          <mxGeometry x="-23" y="135.5" width="100" height="100" as="geometry">
            <mxPoint x="-23" y="235.5" as="sourcePoint" />
            <mxPoint x="77" y="135.5" as="targetPoint" />
          </mxGeometry>
        </mxCell>
        <mxCell id="DZLacPGKGNpmJbC0AI3P-168" style="edgeStyle=orthogonalEdgeStyle;rounded=0;orthogonalLoop=1;jettySize=auto;html=1;exitX=0;exitY=0.5;exitDx=0;exitDy=0;entryX=0;entryY=0.5;entryDx=0;entryDy=0;" edge="1" parent="1" source="DZLacPGKGNpmJbC0AI3P-123" target="DZLacPGKGNpmJbC0AI3P-135">
          <mxGeometry relative="1" as="geometry" />
        </mxCell>
        <mxCell id="DZLacPGKGNpmJbC0AI3P-169" style="edgeStyle=orthogonalEdgeStyle;rounded=0;orthogonalLoop=1;jettySize=auto;html=1;exitX=0;exitY=0.5;exitDx=0;exitDy=0;entryX=0;entryY=0.5;entryDx=0;entryDy=0;" edge="1" parent="1" source="DZLacPGKGNpmJbC0AI3P-123" target="DZLacPGKGNpmJbC0AI3P-136">
          <mxGeometry relative="1" as="geometry" />
        </mxCell>
        <mxCell id="DZLacPGKGNpmJbC0AI3P-170" style="edgeStyle=orthogonalEdgeStyle;rounded=0;orthogonalLoop=1;jettySize=auto;html=1;exitX=0;exitY=0.5;exitDx=0;exitDy=0;entryX=0;entryY=0.5;entryDx=0;entryDy=0;" edge="1" parent="1" source="DZLacPGKGNpmJbC0AI3P-123" target="DZLacPGKGNpmJbC0AI3P-141">
          <mxGeometry relative="1" as="geometry" />
        </mxCell>
        <mxCell id="DZLacPGKGNpmJbC0AI3P-172" style="edgeStyle=orthogonalEdgeStyle;rounded=0;orthogonalLoop=1;jettySize=auto;html=1;exitX=0;exitY=0.5;exitDx=0;exitDy=0;entryX=0;entryY=0.5;entryDx=0;entryDy=0;" edge="1" parent="1" source="DZLacPGKGNpmJbC0AI3P-123" target="DZLacPGKGNpmJbC0AI3P-151">
          <mxGeometry relative="1" as="geometry" />
        </mxCell>
        <mxCell id="DZLacPGKGNpmJbC0AI3P-173" style="edgeStyle=orthogonalEdgeStyle;rounded=0;orthogonalLoop=1;jettySize=auto;html=1;exitX=0;exitY=0.5;exitDx=0;exitDy=0;entryX=0;entryY=0.5;entryDx=0;entryDy=0;" edge="1" parent="1" source="DZLacPGKGNpmJbC0AI3P-123" target="DZLacPGKGNpmJbC0AI3P-156">
          <mxGeometry relative="1" as="geometry" />
        </mxCell>
        <mxCell id="DZLacPGKGNpmJbC0AI3P-123" value="Quản lí đơn hàng" style="rounded=1;fillColor=#23445D;gradientColor=none;strokeColor=none;fontColor=#FFFFFF;fontStyle=1;fontFamily=Tahoma;fontSize=14" vertex="1" parent="1">
          <mxGeometry x="569.9999999999999" y="335.5" width="190" height="80" as="geometry" />
        </mxCell>
        <mxCell id="DZLacPGKGNpmJbC0AI3P-124" value="Quản lí danh mục" style="rounded=1;fillColor=#23445D;gradientColor=none;strokeColor=none;fontColor=#FFFFFF;fontStyle=1;fontFamily=Tahoma;fontSize=14" vertex="1" parent="1">
          <mxGeometry x="339.9999999999999" y="460" width="190" height="80" as="geometry" />
        </mxCell>
        <mxCell id="DZLacPGKGNpmJbC0AI3P-125" value="Quản lí mã giảm giá" style="rounded=1;fillColor=#23445D;gradientColor=none;strokeColor=none;fontColor=#FFFFFF;fontStyle=1;fontFamily=Tahoma;fontSize=14" vertex="1" parent="1">
          <mxGeometry x="339.9999999999999" y="580" width="190" height="80" as="geometry" />
        </mxCell>
        <mxCell id="DZLacPGKGNpmJbC0AI3P-126" value="Đăng nhập, đăng ký,&#xa;đổi mật khẩu" style="rounded=1;fillColor=#23445D;gradientColor=none;strokeColor=none;fontColor=#FFFFFF;fontStyle=1;fontFamily=Tahoma;fontSize=14" vertex="1" parent="1">
          <mxGeometry x="106.99999999999989" y="460" width="190" height="80" as="geometry" />
        </mxCell>
        <mxCell id="DZLacPGKGNpmJbC0AI3P-127" value="Phân quyền, xác thực" style="rounded=1;fillColor=#23445D;gradientColor=none;strokeColor=none;fontColor=#FFFFFF;fontStyle=1;fontFamily=Tahoma;fontSize=14" vertex="1" parent="1">
          <mxGeometry x="106.99999999999989" y="580" width="190" height="80" as="geometry" />
        </mxCell>
        <mxCell id="DZLacPGKGNpmJbC0AI3P-130" value="Thêm, sửa, xóa,&#xa;publish, unpublish sản&#xa;phẩm" style="rounded=1;fillColor=#23445D;gradientColor=none;strokeColor=none;fontColor=#FFFFFF;fontStyle=1;fontFamily=Tahoma;fontSize=14" vertex="1" parent="1">
          <mxGeometry x="339.9999999999999" y="700" width="190" height="80" as="geometry" />
        </mxCell>
        <mxCell id="DZLacPGKGNpmJbC0AI3P-134" value="Đăng ký bán hàng" style="rounded=1;fillColor=#23445D;gradientColor=none;strokeColor=none;fontColor=#FFFFFF;fontStyle=1;fontFamily=Tahoma;fontSize=14" vertex="1" parent="1">
          <mxGeometry x="106.99999999999989" y="700" width="190" height="80" as="geometry" />
        </mxCell>
        <mxCell id="DZLacPGKGNpmJbC0AI3P-135" value="Xác nhận đơn hàng" style="rounded=1;fillColor=#23445D;gradientColor=none;strokeColor=none;fontColor=#FFFFFF;fontStyle=1;fontFamily=Tahoma;fontSize=14" vertex="1" parent="1">
          <mxGeometry x="569.9999999999999" y="460" width="190" height="80" as="geometry" />
        </mxCell>
        <mxCell id="DZLacPGKGNpmJbC0AI3P-136" value="Hủy đơn hàng" style="rounded=1;fillColor=#23445D;gradientColor=none;strokeColor=none;fontColor=#FFFFFF;fontStyle=1;fontFamily=Tahoma;fontSize=14" vertex="1" parent="1">
          <mxGeometry x="569.9999999999999" y="580.25" width="190" height="80" as="geometry" />
        </mxCell>
        <mxCell id="DZLacPGKGNpmJbC0AI3P-137" value="Chi tiết hàng tháng" style="rounded=1;fillColor=#23445D;gradientColor=none;strokeColor=none;fontColor=#FFFFFF;fontStyle=1;fontFamily=Tahoma;fontSize=14" vertex="1" parent="1">
          <mxGeometry x="799.9999999999999" y="460" width="190" height="80" as="geometry" />
        </mxCell>
        <mxCell id="DZLacPGKGNpmJbC0AI3P-138" value="Thống kê hàng nhập,&#xa;xuất, tồn" style="rounded=1;fillColor=#23445D;gradientColor=none;strokeColor=none;fontColor=#FFFFFF;fontStyle=1;fontFamily=Tahoma;fontSize=14" vertex="1" parent="1">
          <mxGeometry x="799.9999999999999" y="580.25" width="190" height="80" as="geometry" />
        </mxCell>
        <mxCell id="DZLacPGKGNpmJbC0AI3P-139" value="Thống kê thu, chi, nợ" style="rounded=1;fillColor=#23445D;gradientColor=none;strokeColor=none;fontColor=#FFFFFF;fontStyle=1;fontFamily=Tahoma;fontSize=14" vertex="1" parent="1">
          <mxGeometry x="799.9999999999999" y="700" width="190" height="80" as="geometry" />
        </mxCell>
        <mxCell id="DZLacPGKGNpmJbC0AI3P-180" style="edgeStyle=orthogonalEdgeStyle;rounded=0;orthogonalLoop=1;jettySize=auto;html=1;exitX=0;exitY=0.5;exitDx=0;exitDy=0;entryX=0;entryY=0.5;entryDx=0;entryDy=0;" edge="1" parent="1" source="DZLacPGKGNpmJbC0AI3P-140" target="DZLacPGKGNpmJbC0AI3P-144">
          <mxGeometry relative="1" as="geometry" />
        </mxCell>
        <mxCell id="DZLacPGKGNpmJbC0AI3P-181" style="edgeStyle=orthogonalEdgeStyle;rounded=0;orthogonalLoop=1;jettySize=auto;html=1;exitX=0;exitY=0.5;exitDx=0;exitDy=0;entryX=0;entryY=0.5;entryDx=0;entryDy=0;" edge="1" parent="1" source="DZLacPGKGNpmJbC0AI3P-140" target="DZLacPGKGNpmJbC0AI3P-158">
          <mxGeometry relative="1" as="geometry" />
        </mxCell>
        <mxCell id="DZLacPGKGNpmJbC0AI3P-182" style="edgeStyle=orthogonalEdgeStyle;rounded=0;orthogonalLoop=1;jettySize=auto;html=1;exitX=0;exitY=0.5;exitDx=0;exitDy=0;entryX=0;entryY=0.5;entryDx=0;entryDy=0;" edge="1" parent="1" source="DZLacPGKGNpmJbC0AI3P-140" target="DZLacPGKGNpmJbC0AI3P-159">
          <mxGeometry relative="1" as="geometry" />
        </mxCell>
        <mxCell id="DZLacPGKGNpmJbC0AI3P-140" value="Quản lí thông báo" style="rounded=1;fillColor=#23445D;gradientColor=none;strokeColor=none;fontColor=#FFFFFF;fontStyle=1;fontFamily=Tahoma;fontSize=14" vertex="1" parent="1">
          <mxGeometry x="1259.9999999999998" y="335.5" width="190" height="80" as="geometry" />
        </mxCell>
        <mxCell id="DZLacPGKGNpmJbC0AI3P-141" value="Theo dõi đơn" style="rounded=1;fillColor=#23445D;gradientColor=none;strokeColor=none;fontColor=#FFFFFF;fontStyle=1;fontFamily=Tahoma;fontSize=14" vertex="1" parent="1">
          <mxGeometry x="569.9999999999999" y="700" width="190" height="80" as="geometry" />
        </mxCell>
        <mxCell id="DZLacPGKGNpmJbC0AI3P-183" style="edgeStyle=orthogonalEdgeStyle;rounded=0;orthogonalLoop=1;jettySize=auto;html=1;exitX=0;exitY=0.5;exitDx=0;exitDy=0;entryX=0;entryY=0.5;entryDx=0;entryDy=0;" edge="1" parent="1" source="DZLacPGKGNpmJbC0AI3P-142" target="DZLacPGKGNpmJbC0AI3P-145">
          <mxGeometry relative="1" as="geometry" />
        </mxCell>
        <mxCell id="DZLacPGKGNpmJbC0AI3P-142" value="Quản lí dịch vụ" style="rounded=1;fillColor=#23445D;gradientColor=none;strokeColor=none;fontColor=#FFFFFF;fontStyle=1;fontFamily=Tahoma;fontSize=14" vertex="1" parent="1">
          <mxGeometry x="1489.9999999999998" y="335.5" width="190" height="80" as="geometry" />
        </mxCell>
        <mxCell id="DZLacPGKGNpmJbC0AI3P-143" value="Quản lí tồn kho" style="rounded=1;fillColor=#23445D;gradientColor=none;strokeColor=none;fontColor=#FFFFFF;fontStyle=1;fontFamily=Tahoma;fontSize=14" vertex="1" parent="1">
          <mxGeometry x="1029.9999999999998" y="460" width="190" height="80" as="geometry" />
        </mxCell>
        <mxCell id="DZLacPGKGNpmJbC0AI3P-144" value="Lên lịch" style="rounded=1;fillColor=#23445D;gradientColor=none;strokeColor=none;fontColor=#FFFFFF;fontStyle=1;fontFamily=Tahoma;fontSize=14" vertex="1" parent="1">
          <mxGeometry x="1259.9999999999998" y="460" width="190" height="80" as="geometry" />
        </mxCell>
        <mxCell id="DZLacPGKGNpmJbC0AI3P-145" value="Chăm sóc khách hàng" style="rounded=1;fillColor=#23445D;gradientColor=none;strokeColor=none;fontColor=#FFFFFF;fontStyle=1;fontFamily=Tahoma;fontSize=14" vertex="1" parent="1">
          <mxGeometry x="1489.9999999999998" y="460" width="190" height="80" as="geometry" />
        </mxCell>
        <mxCell id="DZLacPGKGNpmJbC0AI3P-151" value="Lập lịch, giao hàng" style="rounded=1;fillColor=#23445D;gradientColor=none;strokeColor=none;fontColor=#FFFFFF;fontStyle=1;fontFamily=Tahoma;fontSize=14" vertex="1" parent="1">
          <mxGeometry x="569.9999999999999" y="820" width="190" height="80" as="geometry" />
        </mxCell>
        <mxCell id="DZLacPGKGNpmJbC0AI3P-152" value="Thêm, Sửa, Xóa&#xa;thông tin" style="rounded=1;fillColor=#23445D;gradientColor=none;strokeColor=none;fontColor=#FFFFFF;fontStyle=1;fontFamily=Tahoma;fontSize=14" vertex="1" parent="1">
          <mxGeometry x="106.99999999999989" y="820" width="190" height="80" as="geometry" />
        </mxCell>
        <mxCell id="DZLacPGKGNpmJbC0AI3P-153" value="Quản lí đánh giá,&#xa;phản hồi" style="rounded=1;fillColor=#23445D;gradientColor=none;strokeColor=none;fontColor=#FFFFFF;fontStyle=1;fontFamily=Tahoma;fontSize=14" vertex="1" parent="1">
          <mxGeometry x="339.9999999999999" y="820" width="190" height="80" as="geometry" />
        </mxCell>
        <mxCell id="DZLacPGKGNpmJbC0AI3P-156" value="Thanh toán, hoàn trả" style="rounded=1;fillColor=#23445D;gradientColor=none;strokeColor=none;fontColor=#FFFFFF;fontStyle=1;fontFamily=Tahoma;fontSize=14" vertex="1" parent="1">
          <mxGeometry x="569.9999999999999" y="940" width="190" height="80" as="geometry" />
        </mxCell>
        <mxCell id="DZLacPGKGNpmJbC0AI3P-157" value="Nhập, xuất" style="rounded=1;fillColor=#23445D;gradientColor=none;strokeColor=none;fontColor=#FFFFFF;fontStyle=1;fontFamily=Tahoma;fontSize=14" vertex="1" parent="1">
          <mxGeometry x="1029.9999999999998" y="580" width="190" height="80" as="geometry" />
        </mxCell>
        <mxCell id="DZLacPGKGNpmJbC0AI3P-158" value="Tạo thông báo" style="rounded=1;fillColor=#23445D;gradientColor=none;strokeColor=none;fontColor=#FFFFFF;fontStyle=1;fontFamily=Tahoma;fontSize=14" vertex="1" parent="1">
          <mxGeometry x="1259.9999999999998" y="580" width="190" height="80" as="geometry" />
        </mxCell>
        <mxCell id="DZLacPGKGNpmJbC0AI3P-159" value="Gửi thông báo" style="rounded=1;fillColor=#23445D;gradientColor=none;strokeColor=none;fontColor=#FFFFFF;fontStyle=1;fontFamily=Tahoma;fontSize=14" vertex="1" parent="1">
          <mxGeometry x="1259.9999999999998" y="700" width="190" height="80" as="geometry" />
        </mxCell>
      </root>
    </mxGraphModel>
  </diagram>
</mxfile>
